<?xml version="1.0" standalone="yes"?>
<svg xmlns="http://www.w3.org/2000/svg" width="300" height="300">
<path style="fill:#010101; stroke:none;" d="M0 0L0 300L300 300L300 0L0 0z"/>
<path style="fill:#ffffff; stroke:none;" d="M137 17L136 17C132.417 12.8081 124.522 1.63293 118.649 8.24384C115.75 11.5074 115.177 19.3054 109.957 19.9776C104.602 20.6671 98.7488 10.8683 93.4298 14.7083C88.6373 18.1682 91.7886 27.2068 85.8665 29.7878C80.4819 32.1345 73.769 24.2709 68.564 28.0316C62.9856 32.0621 70.0838 41.4076 63.7716 44.9329C59.0387 47.5762 50.9237 40.9395 47.0278 45.7423C43.0329 50.667 50.2481 59.9345 45.3966 64.1682C41.1475 67.8763 31.4254 61.5259 28.6181 68.2284C26.2739 73.8249 33.4975 79.5323 30.8789 84.8526C28.0828 90.5334 17.9477 87.0858 15.6466 93.2245C13.3155 99.4433 22.7569 103.922 21.3233 109.471C19.7674 115.492 8.65582 113.395 6.87577 120.044C4.73654 128.035 17.6736 130.437 15 140C12.9791 140.169 11.7864 140.354 9.97994 141.438C-5.43159 150.681 15.9444 154.046 15.9444 162.04C15.9444 167.998 3.73264 171.618 8.03241 178.61C10.7105 182.965 20.2229 182.503 20.9776 188.105C21.7276 193.671 12.3707 198.713 16.0432 204.581C19.2916 209.771 29.1085 206.608 31.5046 212.634C33.6487 218.027 24.3565 225.081 29.6042 230.258C33.9538 234.548 41.2237 228.73 45.3966 232.746C49.8744 237.056 43.7527 244.783 45.7816 249.852C48.1412 255.747 61.1172 251.04 66 251C66 255.62 64.2643 265.818 68.564 268.971C73.1481 272.333 82.6486 266.938 87 265C88.6612 269.457 89.8146 283.715 96.044 283.215C100.964 282.819 106.011 275.491 110.892 277.255C116.424 279.255 115.641 291.331 122.105 291.252C127.941 291.182 131.374 281.853 136.961 282.631C142.83 283.448 143.777 294.133 150.001 294.133C156.342 294.133 157.197 283.448 163.04 282.631C168.629 281.85 172.093 291.184 177.957 291.252C184.929 291.333 183.498 279.316 189.213 277.306C193.645 275.747 198.718 282.408 202.985 283.242C210.314 284.676 211.13 269.855 213 265C217.07 266.611 228.327 273.132 232.062 269.243C235.942 265.204 233.755 255.229 235 250C239.04 251.278 252.931 256.22 254.477 249.852C255.618 245.149 250.776 237.508 254.607 233.603C257.621 230.532 267.79 231.332 272 231C271.987 226.335 267.064 214.891 269.697 211.513C273.127 207.114 283.657 210.014 285.184 203.867C286.608 198.132 278.342 193.718 279.666 188.105C281.021 182.357 290.325 183.126 292.377 177.787C294.911 171.197 285.334 167.667 284.627 162.04C283.905 156.291 294.946 155.066 295.534 148.997C296.181 142.323 286.711 141.408 285.207 135.96C283.993 131.561 291.141 127.619 292.802 124.001C296.242 116.507 283.064 112.812 278 111C279.477 105.98 288.59 95.9317 283.397 91.0093C279.79 87.5906 270.514 90.1717 268.708 84.7716C267.061 79.8498 275.555 71.1455 270.396 67.0278C266.075 63.5792 257.661 68.1897 254.042 62.5702C250.955 57.7763 258.14 48.9723 253.257 45.0285C249.55 42.0348 238.784 46.1081 234 46C234 41.1278 236.109 27.8254 228.942 27.2415C224.147 26.8508 217.73 32.2195 213.303 29.223C208.622 26.0542 211.536 14.1455 204.891 13.5424C199.251 13.0306 194.861 21.6501 189.468 20.3233C182.048 18.4975 183.869 0.0740662 173 8.22916C171.581 9.29361 170.328 10.6366 169.019 11.8295C167.185 13.4991 165.55 15.078 164 17C160.453 13.2829 156.28 4.89719 150.997 3.75153C145.249 2.50494 139.605 13.0581 137 17z"/>
<path style="fill:#010101; stroke:none;" d="M146.059 30.0285C137.75 34.5312 144.226 48.344 152.956 43.8171C162.406 38.9169 155.221 25.0635 146.059 30.0285M72 75C97.7237 75 123.307 76 149 76C164.326 76 182.26 73.8679 197 78.75C213.657 84.2668 229.337 102.975 222.069 121C218.425 130.038 210.557 136.305 203 142C207.093 147.081 212.008 151.005 215.008 157C217.698 162.376 217.912 170.165 222.533 174.347C235.628 186.197 244.971 166.484 245 156L257 156C257 151.308 258.859 141.599 255.972 137.699C250.966 130.938 238.27 132.149 234.032 123.957C228.993 114.218 243.786 103.09 241.308 93C239.826 86.9665 234.11 81.6104 230.246 77C218.691 63.2136 191.665 41.9862 172 43.6945C162.759 44.4972 158.51 58.6704 149 58.2369C140.066 57.8296 136.467 45.3197 128 43.6875C123.002 42.7241 116.496 46.1611 112 48.0108C97.7422 53.8764 81.218 62.1841 72 75z"/>
<path style="fill:#fffffd; stroke:none;" d="M239 46L240 47L239 46z"/>
<path style="fill:#010101; stroke:none;" d="M44.0154 107.617C34.044 109.926 38.3527 125.944 47.9846 123.012C57.487 120.121 53.4857 105.423 44.0154 107.617M252.015 107.762C242.296 109.786 245.079 125.264 254.985 123.562C265.627 121.733 261.511 105.784 252.015 107.762M77 177L77 108C73.859 108 66.1736 106.692 64.6968 110.434C62.4896 116.026 69.261 120.099 63.7708 125.671C58.6714 130.847 48.0982 131.212 44.0278 136.699C39.4747 142.837 43.7639 160.03 44.9198 167C45.4073 169.94 45.5549 174.009 48.314 175.821C54.5162 179.895 69.7168 177 77 177M126 110L126 129C138.081 129 151.058 130.333 163 128.409C167.681 127.655 174.344 125.953 174.493 119.996C174.629 114.567 168.654 111.055 164 110.305C151.877 108.35 138.277 110 126 110z"/>
<path style="fill:#fffffd; stroke:none;" d="M14 139L15 140L14 139z"/>
<path style="fill:#010101; stroke:none;" d="M126 159L126 178L154 178L154 211L65 212L73 222C79.968 220.563 93.9579 214.84 99.1458 222.144C103.808 228.707 100.638 241.047 108.109 245.468C128.124 257.312 159.55 256.354 181 249.795C185.235 248.5 192.126 247.074 194.297 242.786C197.791 235.887 195.328 224.279 203.044 219.948C210.139 215.965 218.689 223.224 225.999 221.227C230.244 220.067 232.948 215.549 235 212C224.27 210.008 212.884 211 202 211C197.278 211 191.173 212.035 187 209.397C169.88 198.571 177.556 175.894 164.671 163.343C156.326 155.216 136.73 159 126 159z"/>
<path style="fill:#fffdff; stroke:none;" d="M244 166L245 167L244 166z"/>
<path style="fill:#010101; stroke:none;" d="M82.0185 230.746C72.2094 234.503 78.5778 249.016 87.9059 245.254C97.2332 241.492 91.5245 227.106 82.0185 230.746M211.044 230.746C201.615 234.449 207.721 248.72 216.956 245.381C226.381 241.973 220.566 227.007 211.044 230.746z"/>
<path style="fill:#fdffff; stroke:none;" d="M222 239L223 240L222 239z"/>
</svg>
